<?xml version="1.0" encoding="UTF-8"?>
<svg id="Calque_2" xmlns="http://www.w3.org/2000/svg" viewBox="0 0 443.26 61.37">
	<defs>
		<style>
			.cls-1{stroke-width:0px;}
		</style>
	</defs>
	<g id="Calque_1-2">
		<path className="cls-1" d="m201.63,2.64v56.09h-18.91v-20.67h-17.47v20.67h-18.91V2.64h18.91v19.87h17.47V2.64h18.91Z" />
		<path className="cls-1" d="m210.77,2.64h18.91v56.09h-18.91V2.64Z" />
		<path className="cls-1" d="m250.99,17.31h-16.42V2.64h51.76v14.66h-16.43v41.42h-18.91V17.31Z" />
		<path className="cls-1" d="m55.28,2.64v56.09h-15.54l-21.31-25.48v25.48H0V2.64h15.54l21.31,25.48V2.64h18.43Z" />
		<path className="cls-1" d="m93.23,0c-17.52,0-31.72,13.74-31.72,30.69,0,6.36,2,12.26,5.42,17.16l-2.94,10.99,11.11-2.98c5.14,3.47,11.39,5.52,18.14,5.52,17.52,0,31.72-13.74,31.72-30.69S110.75,0,93.23,0Zm.34,45.31c-8.39,0-15.18-6.58-15.18-14.69s6.8-14.69,15.18-14.69,15.18,6.58,15.18,14.69-6.8,14.69-15.18,14.69Z" />
		<path className="cls-1" d="m311.79,2.64h22.42c15.96,0,25.08,11.1,25.08,27.74s-9.12,27.66-25.08,27.66h-22.42V2.64Zm21.2,48.26c10.72,0,17.78-6.61,17.78-20.67s-7.14-20.44-17.78-20.44h-12.92v41.11h12.92Z" />
		<path className="cls-1" d="m365.59,38.13c0-12.69,7.37-20.9,19.15-20.9,13.22,0,19.61,9.65,18.39,22.27h-29.79c.15,8.28,4.71,13,11.7,13,5.4,0,9.42-2.66,10.41-6.84h7.45c-1.06,7.9-8.36,13.07-17.86,13.07-12.08,0-19.46-8.21-19.46-20.6Zm7.9-4.18h21.96c-.23-7.45-4.86-10.56-10.79-10.56-6.31,0-10.56,4.03-11.17,10.56Z" />
		<path className="cls-1" d="m404.96,17.84h8.44l8.06,24.77,2.58,8.66h.3l2.43-8.66,8.06-24.77h8.44l-14.29,40.2h-9.58l-14.44-40.2Z" />
	</g>
</svg>
