<?xml version="1.0" encoding="UTF-8"?>
<svg id="Calque_2" xmlns="http://www.w3.org/2000/svg" viewBox="0 0 283.5 246.2">
	<g id="Calque_1-2">
		<path d="m112,132.6v113.6h-38.3v-41.9h-35.4v41.9H0v-113.6h38.3v40.3h35.4v-40.3h38.3Z" />
		<path d="m130.5,132.6h38.3v113.6h-38.3v-113.6Z" />
		<path d="m212,162.3h-33.3v-29.7h104.8v29.7h-33.3v83.9h-38.3v-83.9h.1Z" />
		<path d="m127.2,5.6v113.6h-31.4l-43.2-51.6v51.6H15.3V5.6h31.5l43.2,51.6V5.6h37.2Z" />
		<path d="m204.1,0c-35.5,0-64.3,27.8-64.3,62.2,0,12.9,4,24.8,11,34.8l-6,22.3,22.5-6c10.4,7,23.1,11.2,36.7,11.2,35.5,0,64.3-27.8,64.3-62.2.1-34.4-28.7-62.3-64.2-62.3Zm.7,91.8c-17,0-30.8-13.3-30.8-29.8s13.8-29.8,30.8-29.8,30.8,13.3,30.8,29.8c-.1,16.5-13.8,29.8-30.8,29.8Z" />
	</g>
</svg>
